<svg width="30" height="30" viewBox="0 0 30 30" fill="none" xmlns="http://www.w3.org/2000/svg">
<path d="M12.875 8.425C12.9587 8.51527 13.0239 8.62116 13.0667 8.73661C13.1095 8.85206 13.1291 8.97481 13.1245 9.09785C13.1198 9.22089 13.091 9.34181 13.0396 9.45371C12.9882 9.56561 12.9153 9.66628 12.825 9.75L9.19 13.125L12.825 16.5C12.9153 16.5837 12.9882 16.6844 13.0396 16.7963C13.0909 16.9082 13.1198 17.0291 13.1244 17.1521C13.1291 17.2752 13.1094 17.3979 13.0666 17.5134C13.0238 17.6288 12.9587 17.7347 12.875 17.825C12.7913 17.9153 12.6906 17.9882 12.5787 18.0396C12.4668 18.0909 12.3459 18.1198 12.2229 18.1244C12.0998 18.1291 11.9771 18.1094 11.8616 18.0666C11.7462 18.0238 11.6403 17.9587 11.55 17.875L7.175 13.8125C7.08034 13.7247 7.00482 13.6184 6.95318 13.5001C6.90154 13.3818 6.87488 13.2541 6.87488 13.125C6.87488 12.9959 6.90154 12.8682 6.95318 12.7499C7.00482 12.6316 7.08034 12.5253 7.175 12.4375L11.55 8.375C11.6403 8.29127 11.7462 8.22614 11.8616 8.18334C11.9771 8.14054 12.0998 8.1209 12.2229 8.12554C12.3459 8.13019 12.4668 8.15902 12.5787 8.2104C12.6906 8.26178 12.7913 8.3347 12.875 8.425ZM17.175 9.75C17.0847 9.66628 17.0118 9.5656 16.9604 9.4537C16.9091 9.34181 16.8802 9.22089 16.8756 9.09785C16.8709 8.97481 16.8906 8.85207 16.9334 8.73662C16.9762 8.62117 17.0413 8.51528 17.125 8.425C17.2087 8.33471 17.3094 8.2618 17.4213 8.21043C17.5332 8.15905 17.6541 8.13022 17.7771 8.12558C17.9002 8.12094 18.0229 8.14057 18.1384 8.18337C18.2538 8.22616 18.3597 8.29128 18.45 8.375L22.825 12.4375C22.9197 12.5253 22.9952 12.6316 23.0468 12.7499C23.0985 12.8682 23.1251 12.9959 23.1251 13.125C23.1251 13.2541 23.0985 13.3818 23.0468 13.5001C22.9952 13.6184 22.9197 13.7247 22.825 13.8125L18.45 17.875C18.3597 17.9587 18.2538 18.0238 18.1384 18.0666C18.0229 18.1094 17.9002 18.1291 17.7771 18.1244C17.6541 18.1198 17.5332 18.0909 17.4213 18.0396C17.3094 17.9882 17.2087 17.9153 17.125 17.825C17.0413 17.7347 16.9762 17.6288 16.9334 17.5134C16.8906 17.3979 16.8709 17.2752 16.8756 17.1521C16.8802 17.0291 16.9091 16.9082 16.9604 16.7963C17.0118 16.6844 17.0847 16.5837 17.175 16.5L20.81 13.125L17.175 9.75Z" fill="white"/>
<path d="M1.875 5.3125C1.875 4.105 2.855 3.125 4.0625 3.125H25.9375C27.145 3.125 28.125 4.105 28.125 5.3125V20.9375C28.125 21.5177 27.8945 22.0741 27.4843 22.4843C27.0741 22.8945 26.5177 23.125 25.9375 23.125H13.825L9.35875 27.5912C9.10381 27.8452 8.7794 28.018 8.4264 28.0879C8.0734 28.1578 7.70761 28.1216 7.37514 27.9839C7.04268 27.8462 6.75841 27.6132 6.55818 27.3142C6.35795 27.0152 6.25072 26.6636 6.25 26.3037V23.125H4.0625C3.48234 23.125 2.92594 22.8945 2.5157 22.4843C2.10547 22.0741 1.875 21.5177 1.875 20.9375V5.3125ZM4.0625 5C3.97962 5 3.90013 5.03292 3.84153 5.09153C3.78292 5.15013 3.75 5.22962 3.75 5.3125V20.9375C3.75 21.11 3.89 21.25 4.0625 21.25H7.1875C7.43614 21.25 7.6746 21.3488 7.85041 21.5246C8.02623 21.7004 8.125 21.9389 8.125 22.1875V26.175L12.775 21.525C12.8619 21.4379 12.9652 21.3687 13.0789 21.3215C13.1925 21.2743 13.3144 21.25 13.4375 21.25H25.9375C26.0204 21.25 26.0999 21.2171 26.1585 21.1585C26.2171 21.0999 26.25 21.0204 26.25 20.9375V5.3125C26.25 5.22962 26.2171 5.15013 26.1585 5.09153C26.0999 5.03292 26.0204 5 25.9375 5H4.0625Z" fill="white"/>
</svg>
