<svg width="31" height="30" viewBox="0 0 31 30" fill="none" xmlns="http://www.w3.org/2000/svg">
<path d="M10.5 5.625C9.6712 5.625 8.87634 5.95424 8.29029 6.54029C7.70424 7.12634 7.375 7.9212 7.375 8.75C7.375 9.5788 7.70424 10.3737 8.29029 10.9597C8.87634 11.5458 9.6712 11.875 10.5 11.875C11.3288 11.875 12.1237 11.5458 12.7097 10.9597C13.2958 10.3737 13.625 9.5788 13.625 8.75C13.625 7.9212 13.2958 7.12634 12.7097 6.54029C12.1237 5.95424 11.3288 5.625 10.5 5.625ZM5.5 8.75C5.5 7.42392 6.02678 6.15215 6.96447 5.21447C7.90215 4.27678 9.17392 3.75 10.5 3.75C11.8261 3.75 13.0979 4.27678 14.0355 5.21447C14.9732 6.15215 15.5 7.42392 15.5 8.75C15.5 10.0761 14.9732 11.3479 14.0355 12.2855C13.0979 13.2232 11.8261 13.75 10.5 13.75C9.17392 13.75 7.90215 13.2232 6.96447 12.2855C6.02678 11.3479 5.5 10.0761 5.5 8.75ZM21.75 8.125C21.2527 8.125 20.7758 8.32254 20.4242 8.67417C20.0725 9.02581 19.875 9.50272 19.875 10C19.875 10.4973 20.0725 10.9742 20.4242 11.3258C20.7758 11.6775 21.2527 11.875 21.75 11.875C22.2473 11.875 22.7242 11.6775 23.0758 11.3258C23.4275 10.9742 23.625 10.4973 23.625 10C23.625 9.50272 23.4275 9.02581 23.0758 8.67417C22.7242 8.32254 22.2473 8.125 21.75 8.125ZM18 10C18 9.00544 18.3951 8.05161 19.0983 7.34835C19.8016 6.64509 20.7554 6.25 21.75 6.25C22.7446 6.25 23.6984 6.64509 24.4017 7.34835C25.1049 8.05161 25.5 9.00544 25.5 10C25.5 10.9946 25.1049 11.9484 24.4017 12.6517C23.6984 13.3549 22.7446 13.75 21.75 13.75C20.7554 13.75 19.8016 13.3549 19.0983 12.6517C18.3951 11.9484 18 10.9946 18 10ZM3 19.0625C3 18.3166 3.29632 17.6012 3.82376 17.0738C4.35121 16.5463 5.06658 16.25 5.8125 16.25H15.1875C15.5825 16.25 15.9588 16.3312 16.3 16.4787C15.8575 16.9762 15.475 17.5288 15.165 18.125H5.8125C5.56386 18.125 5.3254 18.2238 5.14959 18.3996C4.97377 18.5754 4.875 18.8139 4.875 19.0625V19.3837L4.88375 19.4837C4.8925 19.5763 4.9125 19.7188 4.9525 19.895C5.035 20.2463 5.2 20.715 5.52625 21.1812C6.1425 22.0625 7.4725 23.125 10.5 23.125C12.2662 23.125 13.4538 22.7625 14.26 22.2875C14.2938 22.9575 14.4087 23.6062 14.595 24.225C13.5513 24.7 12.2113 25 10.5 25C6.965 25 5.0125 23.7188 3.99 22.2563C3.45504 21.4884 3.12072 20.5989 3.0175 19.6687C3.00873 19.5831 3.0029 19.4973 3 19.4113V19.3787V19.0625ZM22.3762 28.7525C23.8848 28.7521 25.3514 28.2557 26.55 27.3397C27.7486 26.4237 28.6127 25.1389 29.0092 23.6834C29.4056 22.2278 29.3124 20.6823 28.7439 19.285C28.1754 17.8876 27.1632 16.716 25.8632 15.9507C24.5632 15.1853 23.0476 14.8687 21.55 15.0496C20.0523 15.2305 18.6557 15.899 17.5753 16.9519C16.495 18.0048 15.7909 19.3837 15.5715 20.8762C15.3521 22.3687 15.6296 23.892 16.3612 25.2113L15.5287 27.9437C15.4954 28.0522 15.4923 28.1677 15.5196 28.2778C15.5469 28.3879 15.6037 28.4885 15.6839 28.5688C15.7641 28.6491 15.8646 28.7061 15.9747 28.7336C16.0847 28.7611 16.2002 28.7581 16.3088 28.725L19.0425 27.8925C20.03 28.4412 21.1675 28.7525 22.3762 28.7525ZM19.8763 21.2525C19.7103 21.2525 19.5512 21.1866 19.4339 21.0693C19.3165 20.9519 19.2506 20.7928 19.2506 20.6269C19.2506 20.4609 19.3165 20.3018 19.4339 20.1845C19.5512 20.0672 19.7103 20.0012 19.8763 20.0012H24.8762C25.042 20.0012 25.201 20.0671 25.3182 20.1843C25.4354 20.3015 25.5012 20.4605 25.5012 20.6262C25.5012 20.792 25.4354 20.951 25.3182 21.0682C25.201 21.1854 25.042 21.2512 24.8762 21.2512L19.8763 21.2525ZM22.3762 23.7525H19.8763C19.7105 23.7525 19.5515 23.6867 19.4343 23.5694C19.3171 23.4522 19.2513 23.2933 19.2513 23.1275C19.2513 22.9617 19.3171 22.8028 19.4343 22.6856C19.5515 22.5683 19.7105 22.5025 19.8763 22.5025H22.3762C22.542 22.5025 22.701 22.5683 22.8182 22.6856C22.9354 22.8028 23.0012 22.9617 23.0012 23.1275C23.0012 23.2933 22.9354 23.4522 22.8182 23.5694C22.701 23.6867 22.542 23.7525 22.3762 23.7525Z" fill="white"/>
</svg>
