<svg width="33" height="35" viewBox="0 0 33 35" fill="none" xmlns="http://www.w3.org/2000/svg">
<rect y="0.5" width="33" height="34" rx="10" fill="white"/>
<g clip-path="url(#clip0_151_7)">
<rect x="5.5" y="6.5" width="22" height="22" rx="5" fill="white"/>
<path d="M27.4884 17.7058C27.4884 16.8045 27.4135 16.1467 27.2516 15.4647H16.7191V19.5328H22.9014C22.7768 20.5438 22.1037 22.0663 20.608 23.0894L20.587 23.2256L23.9172 25.7466L24.1479 25.7691C26.2668 23.8568 27.4884 21.0432 27.4884 17.7058Z" fill="#8A2BEE"/>
<path d="M16.7191 28.4244C19.7479 28.4244 22.2906 27.45 24.1479 25.7691L20.608 23.0894C19.6607 23.735 18.3893 24.1856 16.7191 24.1856C13.7526 24.1856 11.2348 22.2734 10.3373 19.6303L10.2057 19.6412L6.74298 22.26L6.69769 22.383C8.54241 25.964 12.3316 28.4244 16.7191 28.4244Z" fill="#34A853"/>
<path d="M10.3373 19.6303C10.1005 18.9482 9.96343 18.2174 9.96343 17.4622C9.96343 16.707 10.1005 15.9762 10.3249 15.2941L10.3186 15.1489L6.81243 12.488L6.69772 12.5414C5.93742 14.0274 5.50116 15.6961 5.50116 17.4622C5.50116 19.2283 5.93742 20.897 6.69772 22.383L10.3373 19.6303Z" fill="#FBBC05"/>
<path d="M16.7191 10.7387C18.8256 10.7387 20.2465 11.6278 21.0567 12.3709L24.2227 9.35018C22.2783 7.58405 19.7479 6.5 16.7191 6.5C12.3316 6.5 8.54241 8.96039 6.69769 12.5414L10.3248 15.2941C11.2348 12.651 13.7526 10.7387 16.7191 10.7387Z" fill="#EB4335"/>
</g>
<defs>
<clipPath id="clip0_151_7">
<rect x="5.5" y="6.5" width="22" height="22" rx="5" fill="white"/>
</clipPath>
</defs>
</svg>
