<svg width="31" height="30" viewBox="0 0 31 30" fill="none" xmlns="http://www.w3.org/2000/svg">
<path d="M28 15V25.5113C28 26.2644 27.4406 26.875 26.75 26.875H4.25C3.55937 26.875 3 26.2644 3 25.5113V15L15.5 23.125L28 15Z" stroke="white" stroke-width="2.5" stroke-linejoin="round"/>
<path d="M3 14.865L9.25 10.5575M28 14.865L21.75 10.5575" stroke="white" stroke-width="2.5" stroke-linecap="round" stroke-linejoin="round"/>
<path d="M21.75 3.125H9.25V18.3844C9.24999 18.5926 9.30201 18.7976 9.40133 18.9806C9.50066 19.1637 9.64414 19.319 9.81875 19.4325L14.8187 22.6825C15.0215 22.8143 15.2582 22.8845 15.5 22.8845C15.7418 22.8845 15.9785 22.8143 16.1813 22.6825L21.1813 19.4325C21.3559 19.319 21.4993 19.1637 21.5987 18.9806C21.698 18.7976 21.75 18.5926 21.75 18.3844V3.125Z" stroke="white" stroke-width="2.5" stroke-linejoin="round"/>
<path d="M13 8.125H15.5M13 11.875H18" stroke="white" stroke-width="2.5" stroke-linecap="round" stroke-linejoin="round"/>
</svg>
