<svg width="24" height="27" viewBox="0 0 24 27" fill="none" xmlns="http://www.w3.org/2000/svg">
<path d="M8.75 19.875C8.75 21.245 9.08875 22.5362 9.6875 23.6688V24.5625C9.68743 24.8 9.59719 25.0287 9.43503 25.2022C9.27287 25.3758 9.05088 25.4813 8.8139 25.4975C8.57692 25.5137 8.34264 25.4394 8.15838 25.2895C7.97412 25.1396 7.85363 24.9253 7.82125 24.69L7.8125 24.5625V21.7275C5.73939 21.5735 3.79609 20.6597 2.35526 19.1612C0.914437 17.6627 0.0775167 15.6851 0.00500023 13.6075L0 13.3125V12.6875C7.28032e-05 12.45 0.0903054 12.2213 0.252466 12.0478C0.414626 11.8742 0.636623 11.7687 0.8736 11.7525C1.11058 11.7363 1.34487 11.8106 1.52912 11.9605C1.71338 12.1104 1.83387 12.3247 1.86625 12.56L1.875 12.6875V13.3125C1.87486 15.0063 2.52965 16.6346 3.70242 17.8568C4.87519 19.0789 6.4751 19.8003 8.1675 19.87L8.4375 19.875H8.75ZM8.96875 17.995C9.26648 16.7474 9.85475 15.5879 10.6856 14.6108C11.5165 13.6337 12.5665 12.8668 13.75 12.3725V5.5C13.75 4.17392 13.2232 2.90215 12.2855 1.96447C11.3479 1.02678 10.0761 0.5 8.75 0.5C7.42392 0.5 6.15215 1.02678 5.21447 1.96447C4.27678 2.90215 3.75 4.17392 3.75 5.5V13C3.75003 13.675 3.88673 14.343 4.15188 14.9638C4.41702 15.5845 4.8051 16.1452 5.29275 16.6119C5.78039 17.0786 6.35749 17.4418 6.98926 17.6795C7.62103 17.9172 8.29439 18.0245 8.96875 17.995ZM20 19.875C20 20.7038 19.6708 21.4987 19.0847 22.0847C18.4987 22.6708 17.7038 23 16.875 23C16.0462 23 15.2513 22.6708 14.6653 22.0847C14.0792 21.4987 13.75 20.7038 13.75 19.875C13.75 19.0462 14.0792 18.2513 14.6653 17.6653C15.2513 17.0792 16.0462 16.75 16.875 16.75C17.7038 16.75 18.4987 17.0792 19.0847 17.6653C19.6708 18.2513 20 19.0462 20 19.875ZM23.75 19.875C23.75 21.6984 23.0257 23.447 21.7364 24.7364C20.447 26.0257 18.6984 26.75 16.875 26.75C15.0516 26.75 13.303 26.0257 12.0136 24.7364C10.7243 23.447 10 21.6984 10 19.875C10 18.0516 10.7243 16.303 12.0136 15.0136C13.303 13.7243 15.0516 13 16.875 13C18.6984 13 20.447 13.7243 21.7364 15.0136C23.0257 16.303 23.75 18.0516 23.75 19.875ZM11.875 19.875C11.875 21.2011 12.4018 22.4729 13.3395 23.4105C14.2771 24.3482 15.5489 24.875 16.875 24.875C18.2011 24.875 19.4729 24.3482 20.4105 23.4105C21.3482 22.4729 21.875 21.2011 21.875 19.875C21.875 18.5489 21.3482 17.2771 20.4105 16.3395C19.4729 15.4018 18.2011 14.875 16.875 14.875C15.5489 14.875 14.2771 15.4018 13.3395 16.3395C12.4018 17.2771 11.875 18.5489 11.875 19.875Z" fill="white"/>
</svg>
