<svg width="30" height="31" viewBox="0 0 30 31" fill="none" xmlns="http://www.w3.org/2000/svg">
<path d="M15 6.75C13.8397 6.75 12.7269 7.21094 11.9064 8.03141C11.0859 8.85188 10.625 9.96468 10.625 11.125C10.625 12.2853 11.0859 13.3981 11.9064 14.2186C12.7269 15.0391 13.8397 15.5 15 15.5C16.1603 15.5 17.2731 15.0391 18.0936 14.2186C18.9141 13.3981 19.375 12.2853 19.375 11.125C19.375 9.96468 18.9141 8.85188 18.0936 8.03141C17.2731 7.21094 16.1603 6.75 15 6.75ZM15 9.25C15.4973 9.25 15.9742 9.44754 16.3258 9.79917C16.6775 10.1508 16.875 10.6277 16.875 11.125C16.875 11.6223 16.6775 12.0992 16.3258 12.4508C15.9742 12.8025 15.4973 13 15 13C14.5027 13 14.0258 12.8025 13.6742 12.4508C13.3225 12.0992 13.125 11.6223 13.125 11.125C13.125 10.6277 13.3225 10.1508 13.6742 9.79917C14.0258 9.44754 14.5027 9.25 15 9.25ZM6.875 10.5C6.0462 10.5 5.25134 10.8292 4.66529 11.4153C4.07924 12.0013 3.75 12.7962 3.75 13.625C3.75 14.8 4.4125 15.8125 5.3625 16.35C5.8125 16.6 6.325 16.75 6.875 16.75C7.425 16.75 7.9375 16.6 8.3875 16.35C8.85 16.0875 9.2375 15.7125 9.525 15.2625C8.61435 14.0757 8.12209 12.6209 8.125 11.125V10.775C7.75 10.6 7.325 10.5 6.875 10.5ZM23.125 10.5C22.675 10.5 22.25 10.6 21.875 10.775V11.125C21.875 12.625 21.3875 14.075 20.475 15.2625C20.625 15.5 20.7875 15.6875 20.975 15.875C21.5514 16.4339 22.3221 16.7475 23.125 16.75C23.675 16.75 24.1875 16.6 24.6375 16.35C25.5875 15.8125 26.25 14.8 26.25 13.625C26.25 12.7962 25.9208 12.0013 25.3347 11.4153C24.7487 10.8292 23.9538 10.5 23.125 10.5ZM15 18C12.075 18 6.25 19.4625 6.25 22.375V24.25H23.75V22.375C23.75 19.4625 17.925 18 15 18ZM5.8875 18.6875C3.475 18.975 0 20.2 0 22.375V24.25H3.75V21.8375C3.75 20.575 4.6125 19.525 5.8875 18.6875ZM24.1125 18.6875C25.3875 19.525 26.25 20.575 26.25 21.8375V24.25H30V22.375C30 20.2 26.525 18.975 24.1125 18.6875ZM15 20.5C16.9125 20.5 19.05 21.125 20.2875 21.75H9.7125C10.95 21.125 13.0875 20.5 15 20.5Z" fill="white"/>
</svg>
