<svg width="34" height="35" viewBox="0 0 34 35" fill="none" xmlns="http://www.w3.org/2000/svg">
<path d="M27 11.31C26.2483 11.6361 25.4534 11.8516 24.64 11.95C25.4982 11.4373 26.1413 10.6308 26.45 9.67998C25.6436 10.16 24.7608 10.4983 23.84 10.68C23.2245 10.0125 22.405 9.56827 21.5098 9.41683C20.6147 9.26538 19.6945 9.41533 18.8938 9.84316C18.093 10.271 17.4569 10.9525 17.0852 11.7808C16.7135 12.6091 16.6273 13.5374 16.84 14.42C15.2094 14.3375 13.6144 13.9129 12.1587 13.1738C10.7029 12.4347 9.41885 11.3977 8.39 10.13C8.02914 10.7601 7.83952 11.4738 7.84 12.2C7.83872 12.8744 8.00422 13.5386 8.32176 14.1335C8.63929 14.7285 9.09902 15.2357 9.66 15.61C9.00798 15.5922 8.36989 15.4173 7.8 15.1V15.15C7.80489 16.0949 8.13599 17.0091 8.73731 17.7379C9.33864 18.4668 10.1733 18.9656 11.1 19.15C10.7433 19.2585 10.3729 19.3158 10 19.32C9.74189 19.317 9.48442 19.2936 9.23 19.25C9.49391 20.0628 10.0046 20.7731 10.6911 21.2821C11.3775 21.7911 12.2056 22.0735 13.06 22.09C11.6172 23.2252 9.83588 23.8448 8 23.85C7.66574 23.8511 7.33174 23.831 7 23.79C8.87443 25.0002 11.0588 25.6427 13.29 25.64C14.8297 25.656 16.3571 25.365 17.7831 24.7841C19.2091 24.2031 20.505 23.3439 21.5952 22.2565C22.6854 21.1691 23.548 19.8754 24.1326 18.4509C24.7172 17.0264 25.012 15.4997 25 13.96C25 13.79 25 13.61 25 13.43C25.7847 12.8448 26.4615 12.1274 27 11.31Z" fill="#8A2BEE"/>
</svg>
