<svg width="30" height="30" viewBox="0 0 30 30" fill="none" xmlns="http://www.w3.org/2000/svg">
<path d="M8.675 6.25003C8.67467 6.91307 8.41096 7.54882 7.94188 8.01743C7.47281 8.48604 6.83679 8.74911 6.17375 8.74878C5.51071 8.74845 4.87496 8.48474 4.40635 8.01566C3.93774 7.54659 3.67467 6.91057 3.675 6.24753C3.67533 5.58449 3.93904 4.94874 4.40812 4.48013C4.87719 4.01152 5.51321 3.74845 6.17625 3.74878C6.83929 3.74911 7.47504 4.01282 7.94365 4.4819C8.41226 4.95097 8.67533 5.58699 8.675 6.25003ZM8.75 10.6H3.75V26.25H8.75V10.6ZM16.65 10.6H11.675V26.25H16.6V18.0375C16.6 13.4625 22.5625 13.0375 22.5625 18.0375V26.25H27.5V16.3375C27.5 8.62503 18.675 8.91253 16.6 12.7L16.65 10.6Z" fill="white"/>
</svg>
